<?xml version="1.0" encoding="UTF-8"?>
<!-- Generated by Pixelmator Pro 3.3.11 -->
<svg width="16" height="16" viewBox="0 0 16 16" xmlns="http://www.w3.org/2000/svg">
    <path id="Path" fill="#b371ad" fill-rule="evenodd" stroke="none" d="M 0 8 C 0 3.58172 3.58172 0 8 0 C 12.4161 0.005143 15.9949 3.58385 16 8 C 16 12.4183 12.4183 16 8 16 C 3.58172 16 0 12.4183 0 8 Z M 8.05467 11.6593 L 12.618 5.46667 C 12.7723 5.275721 12.8091 5.01545 12.7139 4.78918 C 12.6187 4.56291 12.4069 4.40726 12.1625 4.384029 C 11.9182 4.36079 11.6808 4.47373 11.5447 4.677999 L 7.39333 10.312 L 4.676 8.138 C 4.38844 7.90788 3.96879 7.95444 3.73867 8.242 C 3.50855 8.52956 3.55511 8.94921 3.84267 9.17933 L 7.10133 11.7847 C 7.24379 11.896 7.42501 11.9455 7.60428 11.9219 C 7.78355 11.8983 7.94584 11.8037 8.05467 11.6593 Z"/>
</svg>
